<svg width="195" height="28" viewBox="0 0 195 28" fill="none" xmlns="http://www.w3.org/2000/svg">
<path d="M0 22.178C0 21.3273 0.087 20.757 0.261 20.467C0.435 20.1577 0.802333 20.003 1.363 20.003C1.96233 20.003 2.262 20.0803 2.262 20.235C2.39733 19.423 3.422 16.5327 5.336 11.564C7.26933 6.576 8.34233 4.06267 8.555 4.024C9.17367 3.92733 9.92767 3.879 10.817 3.879C11.281 3.879 11.948 3.92733 12.818 4.024C13.0307 4.12067 14.094 6.65333 16.008 11.622C17.9413 16.5713 18.9757 19.4423 19.111 20.235C19.111 20.0803 19.4107 20.003 20.01 20.003C20.5707 20.003 20.938 20.1577 21.112 20.467C21.286 20.757 21.373 21.3273 21.373 22.178C21.373 23.164 21.2667 23.715 21.054 23.831C20.8027 24.063 19.2947 24.179 16.53 24.179C14.5387 24.179 13.543 24.0727 13.543 23.86C13.1177 23.6087 12.905 22.7483 12.905 21.279C12.905 21.0663 12.9147 20.902 12.934 20.786C12.9533 20.67 13.0307 20.554 13.166 20.438C13.3013 20.322 13.4947 20.264 13.746 20.264C14.3067 20.264 14.587 20.3027 14.587 20.38C14.6643 20.38 14.703 20.2833 14.703 20.09C14.703 19.6067 14.442 18.5047 13.92 16.784C13.1273 16.8613 12.0737 16.9 10.759 16.9C9.34767 16.9 8.24567 16.8613 7.453 16.784C6.931 18.524 6.67 19.6357 6.67 20.119C6.67 20.2737 6.70867 20.3607 6.786 20.38C6.902 20.3027 7.15333 20.264 7.54 20.264C7.83 20.264 8.04267 20.3317 8.178 20.467C8.33267 20.6023 8.41967 20.7377 8.439 20.873C8.45833 21.0083 8.468 21.2307 8.468 21.54C8.468 22.816 8.25533 23.5893 7.83 23.86C7.83 24.0727 6.83433 24.179 4.843 24.179C2.07833 24.179 0.570333 24.063 0.319 23.831C0.106333 23.715 0 23.164 0 22.178ZM8.497 13.42C9.23167 13.362 9.93733 13.333 10.614 13.333C11.4067 13.333 12.151 13.3717 12.847 13.449C11.977 10.8777 11.252 8.88633 10.672 7.475C10.1307 8.809 9.40567 10.7907 8.497 13.42Z" fill="#624CAB"/>
<path d="M22.825 6.373C22.825 5.94767 22.912 5.62867 23.086 5.416C24.9227 4.372 26.9527 3.85 29.176 3.85C31.206 3.85 32.975 4.12067 34.483 4.662C36.0104 5.20333 37.2284 5.97667 38.137 6.982C39.065 7.98733 39.7514 9.14733 40.196 10.462C40.6407 11.7573 40.863 13.217 40.863 14.841C40.863 18.0503 39.9737 20.4573 38.195 22.062C36.4164 23.6667 33.613 24.469 29.785 24.469C27.523 24.469 25.3577 24.063 23.289 23.251C23.0957 23.0577 22.999 22.3907 22.999 21.25C22.999 20.612 23.028 20.1963 23.086 20.003C23.144 19.713 23.55 19.568 24.304 19.568C24.5167 19.568 24.7584 19.5873 25.029 19.626C24.8357 18.2727 24.739 16.4747 24.739 14.232C24.739 12.2407 24.855 10.404 25.087 8.722C24.8744 8.78 24.6134 8.809 24.304 8.809C23.55 8.809 23.144 8.664 23.086 8.374C22.912 7.63933 22.825 6.97233 22.825 6.373ZM29.176 20.322C29.7367 20.5153 30.3457 20.612 31.003 20.612C32.6077 20.612 33.99 20.061 35.15 18.959C36.3294 17.8377 36.919 16.3973 36.919 14.638C36.919 12.84 36.339 11.2257 35.179 9.795C34.019 8.36433 32.627 7.649 31.003 7.649C30.3264 7.649 29.7174 7.78433 29.176 8.055C29.35 9.795 29.437 11.7767 29.437 14C29.437 16.6487 29.35 18.756 29.176 20.322Z" fill="#624CAB"/>
<path d="M43.2109 16.465C43.2109 15.015 43.5106 13.5457 44.1099 12.057C44.7092 10.549 45.5116 9.186 46.5169 7.968C47.5416 6.75 48.8079 5.75433 50.3159 4.981C51.8239 4.20767 53.4189 3.821 55.1009 3.821C57.5562 3.821 59.3929 4.59433 60.6109 6.141C61.8482 7.68767 62.4669 9.65 62.4669 12.028C62.4669 13.4587 62.2446 14.8893 61.7999 16.32C61.3552 17.7313 60.7076 19.0557 59.8569 20.293C59.0256 21.5303 57.8946 22.5357 56.4639 23.309C55.0526 24.0823 53.4672 24.469 51.7079 24.469C49.1946 24.469 47.1452 23.744 45.5599 22.294C43.9939 20.8247 43.2109 18.8817 43.2109 16.465ZM47.5319 16.001C47.5319 17.4123 47.9089 18.5433 48.6629 19.394C49.4169 20.2253 50.4029 20.641 51.6209 20.641C52.8969 20.641 54.0762 20.1673 55.1589 19.22C56.2416 18.2727 57.0632 17.1513 57.6239 15.856C58.1846 14.5607 58.4649 13.3137 58.4649 12.115C58.4649 10.839 58.1169 9.80467 57.4209 9.012C56.7442 8.2 55.7486 7.794 54.4339 7.794C53.0806 7.794 51.8626 8.23867 50.7799 9.128C49.6972 9.998 48.8852 11.0517 48.3439 12.289C47.8026 13.5263 47.5319 14.7637 47.5319 16.001Z" fill="#624CAB"/>
<path d="M64.7343 6.025C64.7343 5.13567 64.8793 4.50733 65.1693 4.14C66.3293 3.734 67.47 3.531 68.5913 3.531C69.6547 3.531 70.428 3.705 70.9113 4.053C71.008 4.42033 71.0563 4.75867 71.0563 5.068C71.0563 5.22267 71.0467 5.30967 71.0273 5.329C71.3947 5.213 71.9553 5.02933 72.7093 4.778C73.4827 4.50733 74.053 4.314 74.4203 4.198C74.7877 4.082 75.2227 3.97567 75.7253 3.879C76.2473 3.763 76.7017 3.705 77.0883 3.705C78.5383 3.705 79.7177 4.29467 80.6263 5.474C81.5543 6.634 82.0183 8.084 82.0183 9.824C82.0183 11.8927 81.3707 13.7487 80.0753 15.392C78.7993 17.0353 77.069 17.857 74.8843 17.857C73.7243 17.857 72.6707 17.567 71.7233 16.987C71.762 17.1803 71.7813 17.654 71.7813 18.408C71.7813 18.8333 71.7233 19.51 71.6073 20.438C71.6847 20.4187 71.936 20.409 72.3613 20.409C72.6707 20.409 72.9897 20.4573 73.3183 20.554C73.6663 20.6507 73.8887 20.7763 73.9853 20.931C74.2753 21.1243 74.4203 21.569 74.4203 22.265C74.4203 22.8643 74.2753 23.3187 73.9853 23.628C73.8693 24.0147 72.6513 24.208 70.3313 24.208C67.2187 24.208 65.6043 24.0147 65.4883 23.628C65.237 23.3573 65.1113 22.932 65.1113 22.352C65.1113 21.7527 65.237 21.279 65.4883 20.931C65.701 20.583 66.165 20.409 66.8803 20.409C67.0737 20.409 67.209 20.4187 67.2863 20.438C67.2863 20.1093 67.2767 19.5003 67.2573 18.611C67.238 17.7217 67.2283 16.8033 67.2283 15.856C67.2283 12.434 67.325 10.1817 67.5183 9.099C67.4603 9.11833 67.296 9.128 67.0253 9.128C66.426 9.128 65.9137 9.07967 65.4883 8.983C64.9857 8.36433 64.7343 7.37833 64.7343 6.025ZM71.3753 11.68C71.3753 12.492 71.5783 13.1203 71.9843 13.565C72.4097 14.0097 72.9413 14.232 73.5793 14.232C74.5073 14.232 75.4063 13.8357 76.2763 13.043C77.1657 12.231 77.6103 11.2643 77.6103 10.143C77.6103 9.36967 77.388 8.722 76.9433 8.2C76.518 7.65867 75.938 7.388 75.2033 7.388C74.256 7.388 73.3763 7.81333 72.5643 8.664C71.7717 9.51467 71.3753 10.52 71.3753 11.68Z" fill="#624CAB"/>
<path d="M82.926 7.446C82.926 6.112 83.0613 5.039 83.332 4.227C83.6993 4.20767 84.4823 4.169 85.681 4.111C86.8796 4.03367 88.0783 3.97567 89.277 3.937C90.495 3.89833 91.7323 3.879 92.989 3.879C94.2456 3.879 95.4926 3.89833 96.7299 3.937C97.9673 3.97567 99.2143 4.03367 100.471 4.111C101.747 4.169 102.559 4.20767 102.907 4.227C103.178 5.039 103.313 6.112 103.313 7.446C103.313 8.142 103.245 8.751 103.11 9.273C102.143 9.46633 101.457 9.563 101.051 9.563C100.2 9.563 99.485 9.39867 98.905 9.07L98.412 7.562C98.1606 7.40733 97.0683 7.301 95.135 7.243C95.251 9.71767 95.309 12.289 95.309 14.957C95.309 17.045 95.2026 18.6497 94.99 19.771C95.0866 19.771 95.309 19.8 95.657 19.858C96.1596 19.9353 96.4979 20.0223 96.672 20.119C96.7879 20.2737 96.846 20.8633 96.846 21.888C96.846 22.642 96.7783 23.135 96.643 23.367C96.3336 23.9083 95.164 24.179 93.134 24.179C91.0846 24.179 89.9053 23.9083 89.596 23.367C89.4606 23.135 89.393 22.6323 89.393 21.859C89.393 20.8537 89.451 20.2737 89.567 20.119C89.741 20.0223 90.0793 19.9353 90.582 19.858C90.93 19.8 91.1523 19.771 91.249 19.771C91.0363 18.6497 90.93 17.045 90.93 14.957C90.93 12.289 90.988 9.71767 91.104 7.243C89.1706 7.301 88.0783 7.40733 87.827 7.562L87.334 9.07C86.754 9.39867 86.0386 9.563 85.188 9.563C84.782 9.563 84.0956 9.46633 83.129 9.273C82.9936 8.751 82.926 8.142 82.926 7.446Z" fill="#624CAB"/>
<path d="M102.01 22.178C102.01 21.3273 102.097 20.757 102.271 20.467C102.445 20.1577 102.812 20.003 103.373 20.003C103.972 20.003 104.272 20.0803 104.272 20.235C104.407 19.423 105.432 16.5327 107.346 11.564C109.279 6.576 110.352 4.06267 110.565 4.024C111.183 3.92733 111.937 3.879 112.827 3.879C113.291 3.879 113.958 3.92733 114.828 4.024C115.04 4.12067 116.104 6.65333 118.018 11.622C119.951 16.5713 120.985 19.4423 121.121 20.235C121.121 20.0803 121.42 20.003 122.02 20.003C122.58 20.003 122.948 20.1577 123.122 20.467C123.296 20.757 123.383 21.3273 123.383 22.178C123.383 23.164 123.276 23.715 123.064 23.831C122.812 24.063 121.304 24.179 118.54 24.179C116.548 24.179 115.553 24.0727 115.553 23.86C115.127 23.6087 114.915 22.7483 114.915 21.279C114.915 21.0663 114.924 20.902 114.944 20.786C114.963 20.67 115.04 20.554 115.176 20.438C115.311 20.322 115.504 20.264 115.756 20.264C116.316 20.264 116.597 20.3027 116.597 20.38C116.674 20.38 116.713 20.2833 116.713 20.09C116.713 19.6067 116.452 18.5047 115.93 16.784C115.137 16.8613 114.083 16.9 112.769 16.9C111.357 16.9 110.255 16.8613 109.463 16.784C108.941 18.524 108.68 19.6357 108.68 20.119C108.68 20.2737 108.718 20.3607 108.796 20.38C108.912 20.3027 109.163 20.264 109.55 20.264C109.84 20.264 110.052 20.3317 110.188 20.467C110.342 20.6023 110.429 20.7377 110.449 20.873C110.468 21.0083 110.478 21.2307 110.478 21.54C110.478 22.816 110.265 23.5893 109.84 23.86C109.84 24.0727 108.844 24.179 106.853 24.179C104.088 24.179 102.58 24.063 102.329 23.831C102.116 23.715 102.01 23.164 102.01 22.178ZM110.507 13.42C111.241 13.362 111.947 13.333 112.624 13.333C113.416 13.333 114.161 13.3717 114.857 13.449C113.987 10.8777 113.262 8.88633 112.682 7.475C112.14 8.809 111.415 10.7907 110.507 13.42Z" fill="#624CAB"/>
<path d="M124.632 6.025C124.632 5.13567 124.777 4.50733 125.067 4.14C126.227 3.734 127.367 3.531 128.489 3.531C129.552 3.531 130.325 3.705 130.809 4.053C130.905 4.42033 130.954 4.75867 130.954 5.068C130.954 5.22267 130.944 5.30967 130.925 5.329C131.292 5.213 131.853 5.02933 132.607 4.778C133.38 4.50733 133.95 4.314 134.318 4.198C134.685 4.082 135.12 3.97567 135.623 3.879C136.145 3.763 136.599 3.705 136.986 3.705C138.436 3.705 139.615 4.29467 140.524 5.474C141.452 6.634 141.916 8.084 141.916 9.824C141.916 11.8927 141.268 13.7487 139.973 15.392C138.697 17.0353 136.966 17.857 134.782 17.857C133.622 17.857 132.568 17.567 131.621 16.987C131.659 17.1803 131.679 17.654 131.679 18.408C131.679 18.8333 131.621 19.51 131.505 20.438C131.582 20.4187 131.833 20.409 132.259 20.409C132.568 20.409 132.887 20.4573 133.216 20.554C133.564 20.6507 133.786 20.7763 133.883 20.931C134.173 21.1243 134.318 21.569 134.318 22.265C134.318 22.8643 134.173 23.3187 133.883 23.628C133.767 24.0147 132.549 24.208 130.229 24.208C127.116 24.208 125.502 24.0147 125.386 23.628C125.134 23.3573 125.009 22.932 125.009 22.352C125.009 21.7527 125.134 21.279 125.386 20.931C125.598 20.583 126.062 20.409 126.778 20.409C126.971 20.409 127.106 20.4187 127.184 20.438C127.184 20.1093 127.174 19.5003 127.155 18.611C127.135 17.7217 127.126 16.8033 127.126 15.856C127.126 12.434 127.222 10.1817 127.416 9.099C127.358 9.11833 127.193 9.128 126.923 9.128C126.323 9.128 125.811 9.07967 125.386 8.983C124.883 8.36433 124.632 7.37833 124.632 6.025ZM131.273 11.68C131.273 12.492 131.476 13.1203 131.882 13.565C132.307 14.0097 132.839 14.232 133.477 14.232C134.405 14.232 135.304 13.8357 136.174 13.043C137.063 12.231 137.508 11.2643 137.508 10.143C137.508 9.36967 137.285 8.722 136.841 8.2C136.415 7.65867 135.835 7.388 135.101 7.388C134.153 7.388 133.274 7.81333 132.462 8.664C131.669 9.51467 131.273 10.52 131.273 11.68Z" fill="#624CAB"/>
<path d="M142.62 6.634C142.949 6.15067 143.674 5.619 144.795 5.039C145.936 4.459 147.251 4.053 148.739 3.821C149.493 5.00033 149.87 5.793 149.87 6.199C149.87 6.29567 149.629 6.46 149.145 6.692C148.797 6.866 148.498 6.953 148.246 6.953C148.362 7.32033 148.913 8.09367 149.899 9.273C150.905 10.4523 151.784 11.4383 152.538 12.231C153.022 11.941 153.776 11.1 154.8 9.708C155.825 8.29667 156.405 7.37833 156.54 6.953C156.308 6.953 156.009 6.866 155.641 6.692C155.177 6.47933 154.936 6.32467 154.916 6.228C154.936 6.07333 155.11 5.648 155.438 4.952C155.767 4.256 155.97 3.879 156.047 3.821C158.29 3.821 160.33 4.75867 162.166 6.634C161.934 7.92933 161.664 8.76066 161.354 9.128C160.987 9.05067 160.581 8.90567 160.136 8.693C160.059 8.809 159.856 9.11833 159.527 9.621C159.218 10.1237 158.947 10.5297 158.715 10.839C158.483 11.1483 158.164 11.5447 157.758 12.028C157.372 12.492 156.927 12.9367 156.424 13.362C155.922 13.7873 155.38 14.1933 154.8 14.58C154.704 15.0247 154.626 16.0783 154.568 17.741C154.53 19.4037 154.491 20.38 154.452 20.67C154.936 20.67 155.429 20.8053 155.931 21.076C156.009 21.1533 156.047 21.3563 156.047 21.685C156.047 22.0523 155.999 22.4873 155.902 22.99C155.806 23.4927 155.728 23.8117 155.67 23.947C155.535 24.121 154.394 24.208 152.248 24.208C151.552 24.208 151.05 24.1983 150.74 24.179C150.431 24.179 150.083 24.1693 149.696 24.15C149.329 24.1307 149.058 24.092 148.884 24.034C148.71 23.9567 148.585 23.86 148.507 23.744C148.43 23.5507 148.391 23.0673 148.391 22.294C148.391 21.598 148.469 21.1727 148.623 21.018C149.107 20.786 149.667 20.67 150.305 20.67C150.305 20.4573 150.286 19.8773 150.247 18.93C150.228 17.9827 150.199 17.1223 150.16 16.349C150.122 15.5563 150.073 14.9667 150.015 14.58C148.855 13.826 147.695 12.7627 146.535 11.39C145.395 9.998 144.766 9.099 144.65 8.693C144.206 8.90567 143.8 9.05067 143.432 9.128C143.046 8.374 142.775 7.54267 142.62 6.634Z" fill="#624CAB"/>
<path d="M175.5 0C174.51 0 173.56 0.393332 172.86 1.09347C172.16 1.7936 171.766 2.74319 171.766 3.73333V5.6C171.766 6.59014 172.16 7.53973 172.86 8.23987C173.56 8.94 174.51 9.33333 175.5 9.33333C176.49 9.33333 177.439 8.94 178.14 8.23987C178.84 7.53973 179.233 6.59014 179.233 5.6V3.73333C179.233 2.74319 178.84 1.7936 178.14 1.09347C177.439 0.393332 176.49 0 175.5 0ZM184.833 0C183.843 0 182.893 0.393332 182.193 1.09347C181.493 1.7936 181.1 2.74319 181.1 3.73333V5.6C181.1 6.59014 181.493 7.53973 182.193 8.23987C182.893 8.94 183.843 9.33333 184.833 9.33333C185.823 9.33333 186.773 8.94 187.473 8.23987C188.173 7.53973 188.566 6.59014 188.566 5.6V3.73333C188.566 2.74319 188.173 1.7936 187.473 1.09347C186.773 0.393332 185.823 0 184.833 0ZM169.9 9.33333C168.91 9.33333 167.96 9.72667 167.26 10.4268C166.56 11.1269 166.166 12.0765 166.166 13.0667V14C166.166 14.9901 166.56 15.9397 167.26 16.6399C167.96 17.34 168.91 17.7333 169.9 17.7333C170.89 17.7333 171.839 17.34 172.54 16.6399C173.24 15.9397 173.633 14.9901 173.633 14V13.0667C173.633 12.0765 173.24 11.1269 172.54 10.4268C171.839 9.72667 170.89 9.33333 169.9 9.33333ZM190.433 9.33333C189.443 9.33333 188.493 9.72667 187.793 10.4268C187.093 11.1269 186.7 12.0765 186.7 13.0667V14C186.7 14.9901 187.093 15.9397 187.793 16.6399C188.493 17.34 189.443 17.7333 190.433 17.7333C191.423 17.7333 192.373 17.34 193.073 16.6399C193.773 15.9397 194.166 14.9901 194.166 14V13.0667C194.166 12.0765 193.773 11.1269 193.073 10.4268C192.373 9.72667 191.423 9.33333 190.433 9.33333ZM184.111 14.5208C183.631 13.9386 183.029 13.4698 182.347 13.1479C181.665 12.826 180.921 12.6591 180.166 12.6591C179.412 12.6591 178.668 12.826 177.986 13.1479C177.304 13.4698 176.701 13.9386 176.222 14.5208L170.777 21.1344C168.52 23.8728 170.469 28 174.016 28C174.523 28 175.024 27.8824 175.475 27.6547L176.147 27.3187C177.395 26.6947 178.771 26.3699 180.166 26.3699C181.562 26.3699 182.938 26.6947 184.185 27.3187L184.857 27.6547C185.309 27.8824 185.809 28 186.317 28C189.864 28 191.813 23.8728 189.558 21.1344L184.111 14.5208Z" fill="#624CAB"/>
</svg>
